<svg width="19" height="26" viewBox="0 0 19 26" fill="none" xmlns="http://www.w3.org/2000/svg">
<path d="M17.6422 25.976C17.9409 25.976 18.0902 25.72 18.0902 25.208C18.0902 25.08 18.0476 24.9307 17.9622 24.76C17.8769 24.5893 17.8129 24.44 17.7702 24.312C16.3196 22.136 15.1036 20.4507 14.1222 19.256C13.0982 18.0187 12.1809 16.9947 11.3702 16.184C10.5596 15.3307 9.66358 14.456 8.68225 13.56C8.38358 13.3467 8.23425 13.1973 8.23425 13.112C8.23425 12.984 8.38358 12.8133 8.68225 12.6C9.66358 11.7467 10.5596 10.9147 11.3702 10.104C12.1809 9.25067 13.0982 8.20533 14.1222 6.968C15.1036 5.73067 16.3196 4.04533 17.7702 1.912C17.8556 1.74133 17.9409 1.57067 18.0262 1.4C18.0689 1.22933 18.0902 1.05867 18.0902 0.887999C18.0902 0.418665 17.9622 0.183998 17.7062 0.183998C17.2369 0.183998 16.7889 0.375998 16.3622 0.759998C15.9356 1.10133 15.6369 1.35733 15.4662 1.528C14.1862 2.68 13.0556 3.68267 12.0742 4.536C11.0502 5.34667 10.0476 6.11467 9.06625 6.84C8.08492 7.56533 6.95425 8.33333 5.67425 9.144C4.35158 9.95467 2.73025 10.936 0.810249 12.088C0.383583 12.3013 0.17025 12.6213 0.17025 13.048C0.17025 13.5173 0.29825 13.9653 0.554249 14.392C0.810249 14.8187 1.27958 15.1813 1.96225 15.48C3.41292 16.2053 4.71425 16.888 5.86625 17.528C6.97558 18.1253 8.02092 18.744 9.00225 19.384C9.94092 20.024 10.9222 20.7707 11.9462 21.624C12.9702 22.4773 14.1222 23.5013 15.4022 24.696C15.5729 24.8667 15.8716 25.1227 16.2982 25.464C16.7249 25.8053 17.1729 25.976 17.6422 25.976Z" fill="white"/>
</svg>
