<svg width="19" height="26" viewBox="0 0 19 26" fill="none" xmlns="http://www.w3.org/2000/svg">
<path d="M1.35775 25.976C1.05908 25.976 0.90975 25.72 0.90975 25.208C0.90975 25.08 0.952417 24.9307 1.03775 24.76C1.12308 24.5893 1.18708 24.44 1.22975 24.312C2.68042 22.136 3.89642 20.4507 4.87775 19.256C5.90175 18.0187 6.81908 16.9947 7.62975 16.184C8.44042 15.3307 9.33642 14.456 10.3178 13.56C10.6164 13.3467 10.7658 13.1973 10.7658 13.112C10.7658 12.984 10.6164 12.8133 10.3178 12.6C9.33642 11.7467 8.44042 10.9147 7.62975 10.104C6.81908 9.25067 5.90175 8.20533 4.87775 6.968C3.89642 5.73067 2.68042 4.04533 1.22975 1.912C1.14442 1.74133 1.05908 1.57067 0.97375 1.4C0.931084 1.22933 0.90975 1.05867 0.90975 0.887999C0.90975 0.418665 1.03775 0.183998 1.29375 0.183998C1.76308 0.183998 2.21108 0.375998 2.63775 0.759998C3.06442 1.10133 3.36308 1.35733 3.53375 1.528C4.81375 2.68 5.94442 3.68267 6.92575 4.536C7.94975 5.34667 8.95242 6.11467 9.93375 6.84C10.9151 7.56533 12.0458 8.33333 13.3258 9.144C14.6484 9.95467 16.2698 10.936 18.1898 12.088C18.6164 12.3013 18.8298 12.6213 18.8298 13.048C18.8298 13.5173 18.7018 13.9653 18.4458 14.392C18.1898 14.8187 17.7204 15.1813 17.0378 15.48C15.5871 16.2053 14.2858 16.888 13.1338 17.528C12.0244 18.1253 10.9791 18.744 9.99775 19.384C9.05908 20.024 8.07775 20.7707 7.05375 21.624C6.02975 22.4773 4.87775 23.5013 3.59775 24.696C3.42708 24.8667 3.12842 25.1227 2.70175 25.464C2.27508 25.8053 1.82708 25.976 1.35775 25.976Z" fill="white"/>
</svg>
